# xmcd
#
# Track frame offsets:
#	150
#	17303
#	32914
#	51705
#	66501
#	84568
#	102451
#	120638
#	136010
#	149906
#	162427
#	174878
#	189373
#	200103
#
# Disc length: 2912 seconds
#
# Revision: 2
# Processed by: cddbd v1.5.2PL0 Copyright (c) Steve Scherf et al.
# Submitted via: audiograbber 1.83.01
#
DISCID=cf0b5e0e
DTITLE=Hitz - Country 2005 Volume 5
DYEAR=2005
DGENRE=Country
TTITLE0=Toby Keith - As Good As I Once Was
TTITLE1=Kenny Chesney - Keg In The Closet
TTITLE2=Brad Paisley - Alcohol
TTITLE3=Brooks and Dunn - Play Something Country
TTITLE4=Sara Evans - A Real Fine Place To Start
TTITLE5=Montgomery Gentry - Something To Be Proud Of
TTITLE6=Bully Currington - Must Be Doin' Somethin' Right
TTITLE7=Blaine Larson - The Best Man
TTITLE8=Erika Jo - I Break Things
TTITLE9=Steve Azar - Doin' It Right
TTITLE10=Matt Jenkins - King Of The Castle
TTITLE11=Tracy Lawrence - Used To The Pain
TTITLE12=Clint Black - Rainbow In The Rain
TTITLE13=Gary Allen - Best I Ever Had
EXTD=
EXTT0=
EXTT1=
EXTT2=
EXTT3=
EXTT4=
EXTT5=
EXTT6=
EXTT7=
EXTT8=
EXTT9=
EXTT10=
EXTT11=
EXTT12=
EXTT13=
PLAYORDER=
